<svg xmlns="http://www.w3.org/2000/svg" viewBox="0 0 702 956" preserveAspectRatio="xMinYMin meet" fill="none">
    <path class="background__top" fill="#B6E0FB"
    d="
        M 697 3
        H 5 
        v 946 
        h 692
        V 3
        Z
    "/>
    <path class="background__right" fill="#2283C3" 
    d="
        M 5 447.4 697 29
        v 920
        H 5
        V 447.4
        Z
    "/>
    <path class="background__left" fill="#074E7E" 
    d="
        M 219 318 5 189.15
        V 949
        h 214
        V 318
        Z
    " />
    <g class="background__logo">
        <path
            fill="#B6E0FB"
            d="m219.002 497.263 27.064-16.297v-65.185l40.595-24.444v-32.593l-40.595 24.445V334.3l67.658-40.741v-32.593l-94.722 57.037v179.26Z"
        />
        <path
            fill="#fff"
            d="m313.724 260.966-27.063-16.296-67.659 40.741-67.658-40.741-27.064 16.296 94.722 57.037 94.722-57.037ZM246.066 383.188l40.595-24.444-27.063-16.296-13.532 8.148v32.592Z"
        />
        <path
            fill="#B6E0FB"
            d="m178.407 326.491-27.063-16.296v113.734l27.063-16.296v-81.142Z"
        />
        <path
            fill="#fff"
            d="m191.939 415.781-13.532-8.148-27.063 16.296 40.595 24.445v-32.593Z"
        />
    </g>
</svg>
