<svg xmlns="http://www.w3.org/2000/svg" width="702" height="956" fill="none"><g clip-path="url(#a)" filter="url(#b)"><path fill="#fff" d="M5 3h692v946H5z"/><path fill="#B6E0FB" d="M697 3H5v946h692V3Z"/><path fill="#2283C3" d="M5 447.4 697 29v920H5V447.4Z" style="&#10;"/><path fill="#074E7E" d="M219 318 5 189.15V949h214V318Z"/><path fill="#B6E0FB" d="m219.002 497.263 27.064-16.297v-65.185l40.595-24.444v-32.593l-40.595 24.445V334.3l67.658-40.741v-32.593l-94.722 57.037v179.26Z"/><path fill="#fff" d="m313.724 260.966-27.063-16.296-67.659 40.741-67.658-40.741-27.064 16.296 94.722 57.037 94.722-57.037ZM246.066 383.188l40.595-24.444-27.063-16.296-13.532 8.148v32.592Z"/><path fill="#B6E0FB" d="m178.407 326.491-27.063-16.296v113.734l27.063-16.296v-81.142Z"/><path fill="#fff" d="m191.939 415.781-13.532-8.148-27.063 16.296 40.595 24.445v-32.593Z"/><path stroke="#fff" d="M40.5 3v24M5 38.5h24M673 38.5h24M661.5 3v24M40.5 949v-24M5 913.5h24M661.5 949v-24M697 913.5h-24"/></g><defs><clipPath id="a"><path fill="#fff" d="M5 3h692v946H5z"/></clipPath><filter id="b" width="701.185" height="955.185" x=".407" y=".704" color-interpolation-filters="sRGB" filterUnits="userSpaceOnUse"><feFlood flood-opacity="0" result="BackgroundImageFix"/><feColorMatrix in="SourceAlpha" result="hardAlpha" values="0 0 0 0 0 0 0 0 0 0 0 0 0 0 0 0 0 0 127 0"/><feOffset dy="2.296"/><feGaussianBlur stdDeviation="2.296"/><feComposite in2="hardAlpha" operator="out"/><feColorMatrix values="0 0 0 0 0 0 0 0 0 0 0 0 0 0 0 0 0 0 0.25 0"/><feBlend in2="BackgroundImageFix" result="effect1_dropShadow_167_802"/><feBlend in="SourceGraphic" in2="effect1_dropShadow_167_802" result="shape"/></filter></defs></svg>